HIERARCHY
ROOT hip
{
  OFFSET 0 0 0
  CHANNELS 6 Xposition Yposition Zposition Zrotation Yrotation Xrotation
  JOINT abdomen
  {
    OFFSET 0 20.6881 -0.73152
    CHANNELS 3 Zrotation Xrotation Yrotation
    JOINT chest
    {
      OFFSET 0 11.7043 -0.48768
      CHANNELS 3 Zrotation Xrotation Yrotation
      JOINT neck
      {
        OFFSET 0 22.1894 -2.19456
        CHANNELS 3 Zrotation Xrotation Yrotation
        JOINT head
        {
          OFFSET -0.24384 7.07133 1.2192
          CHANNELS 3 Zrotation Xrotation Yrotation
          JOINT leftEye
          {
            OFFSET 4.14528 8.04674 8.04672
            CHANNELS 3 Zrotation Xrotation Yrotation
            End Site
            {
              OFFSET 1 0 0
            }
          }
          JOINT rightEye
          {
            OFFSET -3.6576 8.04674 8.04672
            CHANNELS 3 Zrotation Xrotation Yrotation
            End Site
            {
              OFFSET 1 0 0
            }
          }
        }
      }
      JOINT rCollar
      {
        OFFSET -2.68224 19.2634 -4.8768
        CHANNELS 3 Zrotation Xrotation Yrotation
        JOINT rShldr
        {
          OFFSET -8.77824 -1.95073 1.46304
          CHANNELS 3 Zrotation Xrotation Yrotation
          JOINT rForeArm
          {
            OFFSET -28.1742 -1.7115 0.48768
            CHANNELS 3 Zrotation Xrotation Yrotation
            JOINT rHand
            {
              OFFSET -22.5879 0.773209 7.07136
              CHANNELS 3 Zrotation Xrotation Yrotation
              JOINT rThumb1
              {
                OFFSET -1.2192 -0.487915 3.41376
                CHANNELS 3 Zrotation Xrotation Yrotation
                JOINT rThumb2
                {
                  OFFSET -3.37035 -0.52449 3.41376
                  CHANNELS 3 Zrotation Xrotation Yrotation
                  End Site
                  {
                    OFFSET -1.78271 -1.18214 1.43049
                  }
                }
              }
              JOINT rIndex1
              {
                OFFSET -7.75947 0.938293 5.60832
                CHANNELS 3 Zrotation Xrotation Yrotation
                JOINT rIndex2
                {
                  OFFSET -2.54057 -0.884171 1.56538
                  CHANNELS 3 Zrotation Xrotation Yrotation
                  End Site
                  {
                    OFFSET -1.62519 -0.234802 1.16502
                  }
                }
              }
              JOINT rMid1
              {
                OFFSET -8.24714 1.18213 3.41376
                CHANNELS 3 Zrotation Xrotation Yrotation
                JOINT rMid2
                {
                  OFFSET -3.10165 -0.590103 1.0647
                  CHANNELS 3 Zrotation Xrotation Yrotation
                  End Site
                  {
                    OFFSET -2.48547 -0.328903 0.83742
                  }
                }
              }
              JOINT rRing1
              {
                OFFSET -8.82822 0.546677 1.51678
                CHANNELS 3 Zrotation Xrotation Yrotation
                JOINT rRing2
                {
                  OFFSET -2.60934 -0.819778 -0.0198488
                  CHANNELS 3 Zrotation Xrotation Yrotation
                  End Site
                  {
                    OFFSET -2.33842 -0.294052 0.168128
                  }
                }
              }
              JOINT rPinky1
              {
                OFFSET -8.27202 -0.0477905 -0.4584
                CHANNELS 3 Zrotation Xrotation Yrotation
                JOINT rPinky2
                {
                  OFFSET -1.82734 -0.647385 -0.700984
                  CHANNELS 3 Zrotation Xrotation Yrotation
                  End Site
                  {
                    OFFSET -1.69225 -0.51767 -0.607171
                  }
                }
              }
            }
          }
        }
      }
      JOINT lCollar
      {
        OFFSET 2.68224 19.2634 -4.8768
        CHANNELS 3 Zrotation Xrotation Yrotation
        JOINT lShldr
        {
          OFFSET 8.77824 -1.95073 1.46304
          CHANNELS 3 Zrotation Xrotation Yrotation
          JOINT lForeArm
          {
            OFFSET 28.1742 -1.7115 0.48768
            CHANNELS 3 Zrotation Xrotation Yrotation
            JOINT lHand
            {
              OFFSET 22.5879 0.773209 7.07136
              CHANNELS 3 Zrotation Xrotation Yrotation
              JOINT lThumb1
              {
                OFFSET 1.2192 -0.487915 3.41376
                CHANNELS 3 Zrotation Xrotation Yrotation
                JOINT lThumb2
                {
                  OFFSET 3.37035 -0.52449 3.41376
                  CHANNELS 3 Zrotation Xrotation Yrotation
                  End Site
                  {
                    OFFSET 1.78271 -1.18214 1.43049
                  }
                }
              }
              JOINT lIndex1
              {
                OFFSET 7.75947 0.938293 5.60832
                CHANNELS 3 Zrotation Xrotation Yrotation
                JOINT lIndex2
                {
                  OFFSET 2.54057 -0.884171 1.56538
                  CHANNELS 3 Zrotation Xrotation Yrotation
                  End Site
                  {
                    OFFSET 1.62519 -0.234802 1.16502
                  }
                }
              }
              JOINT lMid1
              {
                OFFSET 8.24714 1.18213 3.41376
                CHANNELS 3 Zrotation Xrotation Yrotation
                JOINT lMid2
                {
                  OFFSET 3.10165 -0.590103 1.0647
                  CHANNELS 3 Zrotation Xrotation Yrotation
                  End Site
                  {
                    OFFSET 2.48547 -0.328903 0.83742
                  }
                }
              }
              JOINT lRing1
              {
                OFFSET 8.82822 0.546677 1.51678
                CHANNELS 3 Zrotation Xrotation Yrotation
                JOINT lRing2
                {
                  OFFSET 2.60934 -0.819778 -0.0198488
                  CHANNELS 3 Zrotation Xrotation Yrotation
                  End Site
                  {
                    OFFSET 2.33842 -0.294052 0.168128
                  }
                }
              }
              JOINT lPinky1
              {
                OFFSET 8.27202 -0.0477905 -0.4584
                CHANNELS 3 Zrotation Xrotation Yrotation
                JOINT lPinky2
                {
                  OFFSET 1.82734 -0.647385 -0.700984
                  CHANNELS 3 Zrotation Xrotation Yrotation
                  End Site
                  {
                    OFFSET 1.69225 -0.51767 -0.607171
                  }
                }
              }
            }
          }
        }
      }
    }
  }
  JOINT rButtock
  {
    OFFSET -8.77824 4.35084 1.2192
    CHANNELS 3 Zrotation Xrotation Yrotation
    JOINT rThigh
    {
      OFFSET 0 -1.70687 -2.19456
      CHANNELS 3 Zrotation Xrotation Yrotation
      JOINT rShin
      {
        OFFSET 0 -36.8199 0.73152
        CHANNELS 3 Zrotation Xrotation Yrotation
        JOINT rFoot
        {
          OFFSET 0.73152 -45.1104 -5.12064
          CHANNELS 3 Zrotation Xrotation Yrotation
          End Site
          {
            OFFSET -1.1221 -3.69964 12.103
          }
        }
      }
    }
  }
  JOINT lButtock
  {
    OFFSET 8.77824 4.35084 1.2192
    CHANNELS 3 Zrotation Xrotation Yrotation
    JOINT lThigh
    {
      OFFSET 0 -1.70687 -2.19456
      CHANNELS 3 Zrotation Xrotation Yrotation
      JOINT lShin
      {
        OFFSET 0 -36.8199 0.73152
        CHANNELS 3 Zrotation Xrotation Yrotation
        JOINT lFoot
        {
          OFFSET -0.73152 -45.1104 -5.12064
          CHANNELS 3 Zrotation Xrotation Yrotation
          End Site
          {
            OFFSET 1.1221 -3.69964 12.103
          }
        }
      }
    }
  }
}
MOTION
Frames:	4
Frame Time:	0.00833333
6.28618 85.0114 -89.6315 0.0 0.0 0.0 0.0256061 -6.19125e-06 0.000728832 0.00706471 8.63213e-06 0.00122381 -2.13395e-16 0.0 9.31803e-18 -6.39838e-16 3.18055e-15 2.79541e-17 -0.0 0.0 0.0 -0.0 0.0 0.0 -5.10247e-17 -1.94126e-19 1.49089e-16 -4.32221e-16 3.29237e-16 7.95139e-16 -3.80176e-14 1.17283e-14 -1.59028e-14 -4.3573e-13 -9.59136e-15 2.54444e-14 -1.03085e-12 -2.23428e-15 4.13472e-14 -1.78032e-12 -9.54166e-15 6.75868e-14 -1.02732e-12 -2.38542e-15 3.49861e-14 7.73091 5.47488 0.417314 -1.03105e-12 -2.28602e-15 4.45278e-14 2.90554 0.965183 0.102902 -1.02147e-12 -1.98785e-15 4.13472e-14 10.2786 0.731801 0.0259123 -1.0303e-12 -2.78299e-15 4.45278e-14 2.22167 -0.733487 -0.20892 -1.47767e-16 -1.94126e-19 -1.49089e-16 -3.9423e-15 3.29237e-16 -7.95139e-16 -3.86139e-14 -1.0138e-14 2.22639e-14 -4.36562e-13 1.72446e-14 9.54166e-15 -1.02968e-12 9.69315e-15 3.49861e-14 -1.77197e-12 1.27222e-14 7.55382e-14 -1.03567e-12 1.11319e-14 4.45278e-14 -7.73091 5.47488 -0.417314 -1.02995e-12 9.93923e-15 3.49861e-14 -2.90554 0.965183 -0.102902 -1.03568e-12 9.64106e-15 3.97569e-14 -10.2786 0.731801 -0.0259123 -1.02792e-12 1.11319e-14 3.81667e-14 -2.22167 -0.733487 0.20892 -2.03217e-16 0.0 -3.88251e-19 0.512306 -3.13364 -0.0420887 -0.00562807 0.123098 -0.0495528 -0.492806 3.00963 0.117361 2.03217e-16 0.0 3.88251e-19 -0.473318 -3.03453 0.0397102 0.00592193 -0.0564344 0.0521745 0.492498 3.09005 -0.118955
6.18368 83.6104 -91.3271 0.3029 -2.9973 6.3447 0.0716089 1.31418 -0.51737 0.870312 -0.996186 -0.119513 -2.88852 -0.345244 -1.48643 3.19957 -1.66272 -1.90268 -0.0 0.0 0.0 -0.0 0.0 0.0 4.55679e-15 5.23806e-14 -1.26189e-14 21.5179 5.82491 0.565727 -4.9189 -2.39439 7.50198 0.00191657 0.971344 0.136443 2.35768e-11 2.18498e-11 -2.44437e-10 3.99368e-11 3.75446e-11 -4.23238e-10 2.35824e-11 2.18499e-11 -2.44444e-10 7.73091 5.47488 0.417314 2.35764e-11 2.18487e-11 -2.44436e-10 2.90554 0.965183 0.102902 2.35872e-11 2.18487e-11 -2.44437e-10 10.2786 0.731801 0.0259123 2.35789e-11 2.18472e-11 -2.44432e-10 2.22167 -0.733487 -0.20892 4.46492e-15 5.23787e-14 -1.2874e-14 -22.0984 6.28099 -0.500655 4.70938 -2.24716 -7.23541 -0.0100151 2.22019 -0.311181 -1.81298e-10 -4.64399e-11 1.9334e-10 -3.12318e-10 -7.88003e-11 3.36244e-10 -1.81304e-10 -4.64388e-11 1.9335e-10 -7.73091 5.47488 -0.417314 -1.81298e-10 -4.64409e-11 1.9334e-10 -2.90554 0.965183 -0.102902 -1.81304e-10 -4.64415e-11 1.93344e-10 -10.2786 0.731801 -0.0259123 -1.81296e-10 -4.6441e-11 1.93339e-10 -2.22167 -0.733487 0.20892 -2.03217e-16 0.0 -3.88251e-19 0.669981 -6.3692 1.56979 0.000417924 5.89927 0.0480607 -0.65216 0.219073 -2.50682 2.03217e-16 0.0 3.88251e-19 -0.668466 -6.2835 -0.399789 -0.000108094 5.55777 -0.0422675 0.607554 0.0556142 1.83213
6.20076 83.6089 -91.3314 0.3459 -2.886 6.3651 0.144222 2.7018 -1.06687 1.77743 -2.05086 -0.247552 -5.95784 -0.706586 -3.05714 6.45763 -3.41534 -3.91954 -0.0 0.0 0.0 -0.0 0.0 0.0 9.60467e-15 1.09731e-13 -2.60719e-14 44.1394 11.9803 1.18319 -9.44248 -4.78816 15.4732 -0.00109371 2.0006 0.281153 4.26751e-11 5.4686e-11 -5.048e-10 7.20861e-11 9.40711e-11 -8.74015e-10 4.2683e-11 5.46863e-11 -5.04809e-10 7.73091 5.47488 0.417314 4.26744e-11 5.46838e-11 -5.04801e-10 2.90554 0.965183 0.102902 4.26865e-11 5.46834e-11 -5.04801e-10 10.2786 0.731801 0.0259123 4.2679e-11 5.46812e-11 -5.04794e-10 2.22167 -0.733487 -0.20892 9.51658e-15 1.09727e-13 -2.628e-14 -45.3367 12.9188 -1.04767 9.07584 -4.50318 -14.9195 0.0056927 4.56571 -0.641516 -3.8772e-10 -1.13153e-10 3.97591e-10 -6.68052e-10 -1.92539e-10 6.9159e-10 -3.87726e-10 -1.13153e-10 3.97601e-10 -7.73091 5.47488 -0.417314 -3.8772e-10 -1.13155e-10 3.97592e-10 -2.90554 0.965183 -0.102902 -3.87726e-10 -1.13156e-10 3.97594e-10 -10.2786 0.731801 -0.0259123 -3.87717e-10 -1.13157e-10 3.97586e-10 -2.22167 -0.733487 0.20892 -2.03217e-16 0.0 -3.88251e-19 1.0354 -9.78159 3.30432 -0.0149791 12.0092 0.154208 -1.09885 -2.72487 -5.28603 2.03217e-16 0.0 3.88251e-19 -0.930847 -9.7162 -0.868975 0.0139444 11.4888 -0.144506 0.953372 -3.14193 3.89771
6.20019 83.6061 -91.3351 0.3407 -2.874 6.3822 0.23505 3.94128 -1.55684 2.5842 -2.98852 -0.361424 -8.71926 -1.03294 -4.45994 9.26697 -4.96611 -5.72722 -0.0 0.0 0.0 -0.0 0.0 0.0 1.37724e-14 1.57142e-13 -3.8155e-14 64.1946 17.4677 1.77007 -12.9187 -6.69166 22.649 -0.00814425 2.91397 0.409799 7.27921e-11 6.55538e-11 -7.33394e-10 1.23371e-10 1.12653e-10 -1.26985e-09 7.28018e-11 6.55544e-11 -7.33403e-10 7.73091 5.47488 0.417314 7.27912e-11 6.55507e-11 -7.33396e-10 2.90554 0.965183 0.102902 7.28045e-11 6.555e-11 -7.33394e-10 10.2786 0.731801 0.0259123 7.27973e-11 6.55472e-11 -7.33385e-10 2.22167 -0.733487 -0.20892 1.36903e-14 1.57136e-13 -3.83239e-14 -65.95 18.8371 -1.57746 12.4621 -6.3124 -21.8285 0.0427185 6.65978 -0.939181 -5.41835e-10 -1.39339e-10 5.7995e-10 -9.33409e-10 -2.36426e-10 1.00858e-09 -5.41841e-10 -1.39339e-10 5.7996e-10 -7.73091 5.47488 -0.417314 -5.41834e-10 -1.39342e-10 5.79951e-10 -2.90554 0.965183 -0.102902 -5.41841e-10 -1.39344e-10 5.79952e-10 -10.2786 0.731801 -0.0259123 -5.41831e-10 -1.39345e-10 5.7994e-10 -2.22167 -0.733487 0.20892 -2.03217e-16 0.0 -3.88251e-19 1.54337 -12.8023 4.88611 -0.0487003 17.4515 0.254226 -1.73748 -5.31225 -7.78845 2.03217e-16 0.0 3.88251e-19 -1.21171 -12.7787 -1.30377 0.0452018 16.7861 -0.240817 1.45879 -5.98299 5.76546
